<svg xmlns="http://www.w3.org/2000/svg" viewBox="0 0 70.94 70.94"><defs><style>.cls-1{fill:#3564a4;}.cls-2{fill:#fff;}</style></defs><title>Recurso 2</title><g id="Capa_2" data-name="Capa 2"><g id="Capa_1-2" data-name="Capa 1"><circle class="cls-1" cx="35.47" cy="35.47" r="35.47"/><path class="cls-2" d="M59.87,27.33a15.08,15.08,0,0,1-3.28,1.93c-9.84,2.84-14,10.7-17.17,19.37a9.56,9.56,0,0,1-3.2,4.78c-.88.62-1.91,1.58-3.09,1s-.8-2-.64-3c.57-3.66,1.25-7.3,1.93-11.19-4.32,1.55-8.13,3.35-12.29,4.14-5.29,1-11.9-5-10.95-10.23.52-2.86,3.12-2.59,4.48-1.16,3.68,3.87,7,2.13,10.8.33C33.33,30,40.34,27,47.3,23.88c4.48-2,8.77-2.28,12.58,1.48C59.87,26,59.87,26.68,59.87,27.33Z"/><path class="cls-2" d="M33.85,27.22c-3.73,1.89-7.14,5.68-11.53,1.54-.8-.75-2.13-1.14-1.74-2.53.35-1.23,1.61-1.54,2.69-1.72C27.1,23.86,30.32,26,33.85,27.22Z"/></g></g></svg>