<svg xmlns="http://www.w3.org/2000/svg" viewBox="0 0 71.02 71.02"><defs><style>.cls-1{fill:#3564a4;}.cls-2{fill:#fff;}.cls-3{fill:#f4f4f4;}.cls-4{fill:#f7f7f7;}.cls-5{fill:#f3f3f3;}.cls-6{fill:#fcfcfc;}</style></defs><title>Recurso 1</title><g id="Capa_2" data-name="Capa 2"><g id="Capa_1-2" data-name="Capa 1"><circle class="cls-1" cx="35.51" cy="35.51" r="35.51"/><path class="cls-2" d="M11.65,39.73V19.94A2.93,2.93,0,0,1,14,20a40.73,40.73,0,0,0,14.76,1.71,10,10,0,0,1,1.45,0c.64.07,1.47.05,1.65.74s-.59,1.23-1.21,1.6c-1.52.92-3.26,1.37-4.81,2.23-2.23,1.24-2.34,2.67-.34,4.24,2.64,2.08,5.65,2,8.73,1.47a4.84,4.84,0,0,0,1.6-.51c3.61-2.15,6.37-1.21,8.93,2,2,2.43,4.4,4.46,6.59,6.71,1.14,1.18,2.74,2.21,2,4.27-.5,1.44-1.61,1.86-4.45,1.83,0,4.23-.86,5-5.16,4,.07,1.43.39,2.93-1.08,3.9s-2.76.09-4.06-.27c-.46.74,0,1.36,0,2A2.64,2.64,0,0,1,37,58.37a2.74,2.74,0,0,1-3.09-.73,2.06,2.06,0,0,1-.33-2.82c1.09-1.88.45-3.23-1.19-4.55a44.16,44.16,0,0,1-5.74-5.7c-1.49-1.74-3.64-2.77-4.83-4.89a2.08,2.08,0,0,0-3.06-.31C16.39,41.22,14,40.39,11.65,39.73Z"/><path class="cls-1" d="M59.88,41.18c-.28.15-.55.41-.84.43-2.28.2-4.2.51-4.46,3.56-.18,2.06-2.93,1.84-3.9,3s-.9,3.44-2.82,3.76-2.47,1.63-3.66,2.59c-2.18,1.76-4.83,2.94-6.67,5.2-.13.16-.43.19-.67.25-2.31.53-3.54-1.44-5.28-2.16s-4-.36-4.7-2.85c-.22-.82-1-.89-1.43-1.32a83.75,83.75,0,0,1-6-6.19c-.32-.35-.29-.94-1-1.11a3.53,3.53,0,0,1-2.93-3.62c0-.77-.45-.92-1.06-1-1-.15-1.89-.34-2.83-.52V39.72a3.75,3.75,0,0,1,2.58,0,4.07,4.07,0,0,0,3.92-.85c1.72-1.5,4.23-.67,5.17,1.5.44,1,.85,1.81,2.05,1.92.21,0,.55.2.59.37.77,2.85,4.48,3.17,5.18,6,.21.87,1,.69,1.51,1a3.58,3.58,0,0,1,1.52,5.45c-.39.62-1.32,1-.31,1.94s1.81,1.41,3,.82a2.08,2.08,0,0,0,1.22-2.39,4.65,4.65,0,0,0-.64-1.28.89.89,0,0,1,.15-1.28.93.93,0,0,1,1.31.09c1,1,2.16,1.84,3.56.72s1.06-2.19.21-3.4a.87.87,0,0,1,.27-1.27.94.94,0,0,1,1.29.21c1,1,2.08,1.64,3.38.64s1.09-2.17.3-3.41a.93.93,0,0,1,.23-1.3c.45-.34.88-.13,1.32.16a2.1,2.1,0,0,0,3.16-.5c1-1.36.25-2.39-.73-3.36-3.36-3.35-6.73-6.68-10-10.09a2,2,0,0,0-2.72-.52,36.18,36.18,0,0,1-4.72,1.76,10.09,10.09,0,0,1-9.93-2c-2.12-1.79-1.92-3.33.54-4.57,2.19-1.11,4.4-2.19,6.59-3.54-6.83.13-13.56-.17-20-2.66V18.46a2.84,2.84,0,0,1,3-.31c6.62,2.27,13.48,1.39,20.25,1.54A9.87,9.87,0,0,0,40,18a8.7,8.7,0,0,1,9.94.2,6.21,6.21,0,0,0,5.29.65c1.52-.38,3.11-1,4.6.15V20.4c-2.39,2.08-8.11,2.83-10.8.94-3-2.08-5.55-1.64-8.48-.08-4,2.14-8.08,4.27-12.31,6-.69.29-1.77.47-1.68,1.44s1.11,1.05,1.85,1.34a7,7,0,0,0,4.71.25c.84-.26,1.69-.51,2.51-.82,6.63-2.54,5.32-2.42,10,2.18,2.18,2.13,4.38,4.25,6.44,6.48a3.9,3.9,0,0,0,4.28,1.3c1.21-.32,2.56-.74,3.44.73A6.7,6.7,0,0,1,59.88,41.18Z"/><path class="cls-2" d="M59.88,40.21c-1.56-1.12-3.18-.18-4.62.15a2.36,2.36,0,0,1-2.62-.84C49.37,36.2,46,33,42.8,29.59a2.78,2.78,0,0,0-3.75-.72,40.69,40.69,0,0,1-4.93,1.88c-3.43,1.13-6.44.47-9.24-2.37l11.23-5.53c2.16-1.06,4.31-2.13,6.47-3.17,1.79-.87,3.72-1,5.24.24,2.5,2.11,5.18,2.25,8.12,1.45,1.31-.35,2.63-.64,4-.95Q59.88,30.32,59.88,40.21Z"/><path class="cls-3" d="M33,53.25c-.55,1.13-1.17,2.37-2.8,2.38A1.39,1.39,0,0,1,28.71,54a3,3,0,0,1,2.65-2.67C32.35,51.26,32.9,52.07,33,53.25Z"/><path class="cls-4" d="M21.8,42c-.52,1.19-1.28,2.36-2.77,2.45a1.45,1.45,0,0,1-1.55-1.71,2.87,2.87,0,0,1,2.7-2.56C21.18,40.12,21.7,40.87,21.8,42Z"/><path class="cls-5" d="M25.61,45.56a3.35,3.35,0,0,1-2.67,2.62,1.43,1.43,0,0,1-1.68-1.56A2.82,2.82,0,0,1,23.81,44C24.8,43.78,25.36,44.54,25.61,45.56Z"/><path class="cls-6" d="M29.31,49.56c-.73,1-1.29,2.32-2.85,2.33a1.37,1.37,0,0,1-1.39-1.8,2.89,2.89,0,0,1,2.6-2.4C28.62,47.62,29.19,48.41,29.31,49.56Z"/></g></g></svg>