<svg xmlns="http://www.w3.org/2000/svg" viewBox="0 0 71.02 71.02"><defs><style>.cls-1{fill:#3564a4;}.cls-2{fill:#fff;}.cls-3{fill:#f2f2f2;}</style></defs><title>Recurso 1</title><g id="Capa_2" data-name="Capa 2"><g id="Capa_1-2" data-name="Capa 1"><circle class="cls-1" cx="35.51" cy="35.51" r="35.51"/><path class="cls-1" d="M14.19,35.5c-3.79-12.25,3-17.15,13.32-20.9,5.16-1.89,9.22-2.62,14,.25,4,2.44,10,2.79,12.39,6.49,2.48,3.86.57,9.52.74,14.39.12,3.36-.26,6.76.1,10.09s-1.15,5-4.11,6.2c-5.43,2.19-10.74,6.51-16.11,6.52S23.84,54.21,18.4,52.07c-3.14-1.23-4.69-2.88-4.3-6.48A89.3,89.3,0,0,0,14.19,35.5Z"/><path class="cls-2" d="M50.93,33.3a6.06,6.06,0,0,1,.34,1.11c.56,14.23-.1,15.12-15.16,20,0-4.41,0-8.68,0-12.95a2.11,2.11,0,0,1,1.5-2.18C42,37.32,46.46,35.31,50.93,33.3Z"/><path class="cls-2" d="M20,22c5-2.28,9.19-4.12,13.3-6.09,1.25-.6,2.2,0,3.17.39,3.83,1.7,7.61,3.5,12.4,5.71-5.15,2.32-9.53,5.7-14.09,6C30.05,28.26,25.61,24.43,20,22Z"/><path class="cls-2" d="M32.73,54.31c-4.08-.42-5.5-2.34-5.17-6.17.18-2,1.32-4.73-1.12-6.16-1.85-1.08-3.92-3-6.1-2s-.76,3.52-1.07,5.36a6.49,6.49,0,0,1-.8,2.92c-1.23-4.77-.74-9.67-.94-15.13,5,2.27,9.51,4.35,14.06,6.38a1.82,1.82,0,0,1,1.16,1.95C32.72,45.69,32.73,50,32.73,54.31Z"/><path class="cls-2" d="M17.41,24.6c5,2.22,9.24,4.23,13.59,6,2.64,1.1,1.53,3.15,1.68,5.53C27.9,34,23.43,32,18.94,30,16.53,28.91,17.92,26.91,17.41,24.6Z"/><path class="cls-2" d="M50.85,24.87c1.29,3.29.13,5-2.88,6.11-3.88,1.48-7.61,3.35-11.42,5.06-1.33-3.31-.1-4.92,2.9-6.05C43.33,28.52,47.05,26.6,50.85,24.87Z"/><path class="cls-3" d="M22.92,44.24c2.34,1.82.87,4.15,1.11,6.28C21.47,48.81,23.36,46.31,22.92,44.24Z"/></g></g></svg>