<svg xmlns="http://www.w3.org/2000/svg" viewBox="0 0 71.02 71.02"><defs><style>.cls-1{fill:#3564a4;}.cls-2{fill:#fdfdfd;}.cls-3{fill:#fff;}</style></defs><title>Recurso 1</title><g id="Capa_2" data-name="Capa 2"><g id="Capa_1-2" data-name="Capa 1"><circle class="cls-1" cx="35.51" cy="35.51" r="35.51"/><path class="cls-2" d="M35.48,48.61a13.25,13.25,0,0,1-12.6-9.44,13.12,13.12,0,0,1,21.38-13.4,12.57,12.57,0,0,1,2.79,15.6c-1.12,2-.83,3,.73,4.34a57.31,57.31,0,0,1,5,5c.84.93,2.93,1.81,1.38,3.4-1.71,1.75-2.59-.51-3.57-1.38-2-1.8-3.9-3.72-5.71-5.69a1.76,1.76,0,0,0-2.73-.32A12,12,0,0,1,35.48,48.61Z"/><path class="cls-3" d="M21.87,47.59c1.17,0,2.34,0,3.52,0a2.91,2.91,0,0,1,2.89,1.55,3.34,3.34,0,0,1-.91,3.68c-2.34,2.31-7.13,2.45-9.74.29a3.93,3.93,0,0,1-1.22-4.32c.45-1.68,2-1.1,3.19-1.18C20.36,47.55,21.11,47.59,21.87,47.59Z"/><path class="cls-3" d="M22.41,16.3a4,4,0,1,1-4,3.92A4.06,4.06,0,0,1,22.41,16.3Z"/><path class="cls-3" d="M48.54,23.35a3.53,3.53,0,1,1,3.58-3.47A3.59,3.59,0,0,1,48.54,23.35Z"/><path class="cls-3" d="M24,25.56a18.66,18.66,0,0,0-3,5.67c-.11.37-.1.78-.69.86-1.38.19-3.75-2-3.95-3.64-.28-2.44.3-3.06,2.9-3.08,1.34,0,2.68,0,4,0A7.1,7.1,0,0,1,24,25.56Z"/><path class="cls-3" d="M46.78,25.38c2,0,3.41,0,4.83,0,1.06,0,2.4-.34,2.86,1A3.83,3.83,0,0,1,54,30.17,4.16,4.16,0,0,1,50.86,32c-1.29,0-1-1.5-1.36-2.3A23.78,23.78,0,0,0,46.78,25.38Z"/><path class="cls-3" d="M20.63,39a25,25,0,0,0,2.6,5.32c.82,1.09-.05,1.25-.89,1.23a3.36,3.36,0,0,1-3.26-2.3C18.42,41.54,19,40.17,20.63,39Z"/><path class="cls-1" d="M35.59,36.49c1,0,2,0,3,0s2.39-.28,2.77,1.09a4,4,0,0,1-.76,4c-2.38,2.59-7.89,2.6-10.29,0a4,4,0,0,1-.77-4c.44-1.5,1.89-1.06,3-1.1S34.59,36.49,35.59,36.49Z"/><path class="cls-1" d="M39,30.91a3.52,3.52,0,1,1-3.54-3.5A3.59,3.59,0,0,1,39,30.91Z"/></g></g></svg>