<svg xmlns="http://www.w3.org/2000/svg" viewBox="0 0 71.02 71.02"><defs><style>.cls-1{fill:#3564a4;}.cls-2{fill:#fff;}</style></defs><title>Recurso 1</title><g id="Capa_2" data-name="Capa 2"><g id="Capa_1-2" data-name="Capa 1"><circle class="cls-1" cx="35.51" cy="35.51" r="35.51"/><path class="cls-2" d="M32.66,23.52a4.92,4.92,0,0,1,5.22,4.94,11,11,0,0,1-.52,2.82c-1.42,4.87-1.38,9.33,1.73,13.85,2.09,3,1.78,7.17,2.62,10.79a1.79,1.79,0,0,1-1.43,2.19A1.73,1.73,0,0,1,38,56.52c-.6-6.83-4.53-11.24-9.9-15.05C25,39.26,27.45,25.86,30.94,24.1A8.8,8.8,0,0,1,32.66,23.52Z"/><path class="cls-2" d="M41.84,28.17c.43.18.71.33,1,.42,1.67.48,3,3.42,5.13.83,1.23-1.47,3.69-2,3.46-4.61,0-.56.17-1.13.8-1.2.84-.1.78.75,1.15,1.18,2.11,2.49-.07,4.86,0,7.28,0,7.39,0,14.77,0,22.16,0,.64,0,1.29,0,1.93,0,.81.2,2-1,2s-.9-1.26-.9-2.07c0-7.91,0-15.83,0-24.81-2.9,4.47-6.42,4.39-9.65,2.3C39.84,32.28,41.79,30.06,41.84,28.17Z"/><path class="cls-2" d="M16.72,33.31c.69-2.56,1.49-5.76,2.43-8.9a4,4,0,0,1,3.32-2.7c1.89-.35,3.37-.26,2.68,2.56-1.07,4.44-1.86,9-2.62,13.45-.21,1.25-.78,1.29-1.71,1.17C18.53,38.62,16.66,36.39,16.72,33.31Z"/><path class="cls-2" d="M37,21.58a4.82,4.82,0,1,1,4.73-5A4.9,4.9,0,0,1,37,21.58Z"/><path class="cls-2" d="M22.42,58.28c-1.68-.63-2.27-1.56-1.45-3.22,1.6-3.22,4-6.05,4.88-9.62.14-.56.66-1.07,1.14-.59,1.07,1.08,3.68,1.84,3,3.2-1.74,3.48-4.24,6.58-6.48,9.8C23.32,58.13,22.76,58.15,22.42,58.28Z"/></g></g></svg>