<svg xmlns="http://www.w3.org/2000/svg" viewBox="0 0 49.4 39.12"><defs><style>.cls-1{fill:#3476b4;}</style></defs><title>Recurso 1</title><g id="Capa_2" data-name="Capa 2"><g id="Capa_1-2" data-name="Capa 1"><path class="cls-1" d="M0,36.64c3-2.8,6-5.7,9.1-8.4,2.1-1.9,3-3.3,1-6.2-4-5.7-4.9-12.3-4.3-19.1.1-1-.2-2.2.8-2.7,1.4-.8,2.1.6,2.8,1.4,3.6,3.5,7.1,7,10.5,10.7,2,2.2,3.3,2.4,5.6.2,6.1-5.8,12.1-5.1,16.4,2,1.7,2.7,4.7,2.2,7.5,4.7-8.3,1.5-9.8,9.7-15.6,13.7C23.3,40.34,12,39.54.6,38.34.4,37.74.2,37.24,0,36.64Zm37.4-18.8A1.88,1.88,0,0,0,35.5,16c-1.1-.1-2,.3-2.2,1.4-.2,1.4.6,2.1,2,2.1A1.9,1.9,0,0,0,37.4,17.84Z"/></g></g></svg>