<svg xmlns="http://www.w3.org/2000/svg" viewBox="0 0 71.02 71.02"><defs><style>.cls-1{fill:#3564a4;}.cls-2{fill:#fff;}</style></defs><title>Recurso 1</title><g id="Capa_2" data-name="Capa 2"><g id="Capa_1-2" data-name="Capa 1"><circle class="cls-1" cx="35.51" cy="35.51" r="35.51"/><path class="cls-2" d="M49.24,36.83c0,4.55,0,9.1,0,13.64,0,2.92-1.32,4.26-4.21,4.27q-10.17,0-20.35,0c-2.75,0-4.09-1.37-4.09-4.15q0-13.76,0-27.51c0-2.78,1.34-4.14,4.09-4.15q10.29,0,20.58,0c2.61,0,4,1.4,4,4C49.27,27.58,49.24,32.2,49.24,36.83Z"/><path class="cls-2" d="M43.87,33.21a9,9,0,1,1-9-8.92A9,9,0,0,1,43.87,33.21Z"/><path class="cls-1" d="M34.78,49.37c-1.94,0-3.89-.08-5.82,0-1.77.1-1.12-1.14-1.2-2s-.24-1.73,1.24-1.69q5.93.15,11.87,0c1.77,0,1.12,1.14,1.2,2s.25,1.78-1.24,1.69C38.81,49.28,36.79,49.37,34.78,49.37Z"/><path class="cls-1" d="M39.11,38.32c-.32-1.37-.82-2.49-2.52-2.49-.63,0-.91-.72-.55-1.38.71-1.28,1-2.78,2.09-3.85.21-.21.62-.41.61-.6,0-.66-.55-1.67.45-1.72s1.33,1.07,1.75,1.85A6.29,6.29,0,0,1,39.11,38.32Z"/><path class="cls-1" d="M30.89,28.77c-.12.41-.63.77-.34,1.21.46.7.86.08,1.27-.15.78-.45,1.43-.36,1.83.49s-.33,1.33-1,1.59c-.84.32-1.75.49-1.83,1.63,0,.49-.12.57-.6.29-1.17-.69-1.69-.16-1.63,1.22-.82-3.09-.4-4.55,1.81-6.77C30.85,28.16,31,28.35,30.89,28.77Z"/><path class="cls-1" d="M31,35.48c1.33,0,4,1.63,3.85,2.38-.16,1-.67,1.83-1.81,1.84-1.53,0-2.81-1.56-3-3.25C29.87,35.36,30.4,35.43,31,35.48Z"/><path class="cls-1" d="M35,29c0-.93-.78-2,.53-2.45.5-.15,1.5-.07,1.54.5C37.13,28.23,35.8,28.36,35,29Z"/><path class="cls-1" d="M31,28.61l-.45-.44c.24-.53.75-.71,1.22-1s.89.07,1.22.38.37.43.16.69c-.34.42-.71.14-1.07,0S31.33,28.47,31,28.61Z"/></g></g></svg>